<?xml version="1.0" encoding="utf-8"?>
<!-- Generator: Adobe Illustrator 16.2.1, SVG Export Plug-In . SVG Version: 6.00 Build 0)  -->
<!DOCTYPE svg PUBLIC "-//W3C//DTD SVG 1.1//EN" "http://www.w3.org/Graphics/SVG/1.1/DTD/svg11.dtd">
<svg version="1.1" id="Layer_1" xmlns="http://www.w3.org/2000/svg" xmlns:xlink="http://www.w3.org/1999/xlink" x="0px" y="0px"
	 width="1094.449px" height="653.283px" viewBox="0 0 1094.449 653.283" enable-background="new 0 0 1094.449 653.283"
	 xml:space="preserve">
<rect id="doc" x="427.415" y="31.477" fill="none" stroke="#FFFFFF" stroke-width="2" stroke-miterlimit="10" width="235.614" height="313"/>
<rect x="420.32" y="17.811" fill="none" width="158.333" height="103.732"/>
<g>
	<path fill="#FFFFFF" d="M245.117,280.962v276.172h-15.625V297.759L122.656,437.798L15.625,297.759v259.375H0V280.962h22.656
		l100,130.859l99.805-130.859H245.117z"/>
</g>
<g>
	<path fill="#FFFFFF" d="M388.635,369.817c26.3,0,48.663,9.247,67.09,27.734c18.423,18.49,27.637,40.888,27.637,67.188
		c0,26.044-9.213,48.34-27.637,66.895c-18.427,18.555-40.79,27.832-67.09,27.832c-26.044,0-48.34-9.277-66.895-27.832
		s-27.832-40.851-27.832-66.895c0-26.3,9.277-48.697,27.832-67.188C340.295,379.064,362.591,369.817,388.635,369.817z
		 M333.264,409.27c-15.302,15.365-22.949,33.856-22.949,55.469c0,21.615,7.647,40.039,22.949,55.273
		c15.298,15.234,33.755,22.852,55.371,22.852c21.612,0,40.069-7.617,55.371-22.852c15.298-15.234,22.949-33.658,22.949-55.273
		c0-21.612-7.651-40.104-22.949-55.469c-15.302-15.362-33.759-23.047-55.371-23.047C367.02,386.223,348.562,393.908,333.264,409.27z
		"/>
</g>
<g>
	<path fill="#FFFFFF" d="M559.96,296.587v260.547h-15.43V296.587h-69.922v-15.625h155.273v15.625H559.96z"/>
</g>
<g>
	<path fill="#FFFFFF" d="M673.001,331.979c3.059,2.997,4.59,6.576,4.59,10.742c0,4.428-1.531,8.139-4.59,11.133
		c-3.061,2.997-6.674,4.492-10.84,4.492c-4.297,0-7.977-1.495-11.035-4.492c-3.061-2.994-4.59-6.705-4.59-11.133
		c0-4.166,1.529-7.745,4.59-10.742c3.059-2.994,6.738-4.492,11.035-4.492C666.328,327.487,669.941,328.985,673.001,331.979z
		 M669.779,387.448v169.531h-15.43V387.448H669.779z"/>
	<path fill="#FFFFFF" d="M878.406,387.448l-75.781,169.531h-8.203l-75-169.531h18.164l60.938,141.211l61.719-141.211H878.406z"/>
</g>
<g>
	<path fill="#FFFFFF" d="M999.615,368.896c26.299,0,48.662,9.247,67.09,27.734c18.424,18.491,27.637,40.888,27.637,67.188
		c0,26.044-9.213,48.34-27.637,66.895c-18.428,18.555-40.791,27.832-67.09,27.832c-26.045,0-48.34-9.277-66.895-27.832
		s-27.832-40.851-27.832-66.895c0-26.3,9.277-48.696,27.832-67.188C951.275,378.143,973.57,368.896,999.615,368.896z
		 M944.244,408.349c-15.303,15.366-22.949,33.856-22.949,55.469c0,21.616,7.646,40.039,22.949,55.273
		c15.298,15.234,33.755,22.852,55.371,22.852c21.611,0,40.068-7.617,55.371-22.852c15.299-15.234,22.949-33.657,22.949-55.273
		c0-21.612-7.65-40.103-22.949-55.469c-15.303-15.362-33.76-23.047-55.371-23.047C977.999,385.302,959.542,392.987,944.244,408.349z
		"/>
</g>
<rect id="box1" x="426.318" y="30.477" fill="#CFCCE6" width="30.003" height="30.003"/>
<rect id="box1_1_" x="426.318" y="61.037" fill="#FFFFFF" width="30.004" height="30.003"/>
<rect id="box1_2_" x="398.398" y="91.602" fill="#A0C9EC" width="30.004" height="30.003"/>
<rect id="box1_3_" x="456.652" y="30.477" fill="#FFFFFF" width="30.003" height="30.003"/>
<rect id="box1_4_" x="456.652" fill="#6598CB" width="30.003" height="30.003"/>
<rect id="box1_5_" x="456.652" y="61.037" fill="#6598CB" width="30.003" height="30.003"/>
<rect id="box1_6_" x="456.652" y="91.602" fill="#FFFFFF" width="30.004" height="30.003"/>
<rect id="box1_7_" x="456.651" y="122.311" fill="#CFCCE6" width="30.004" height="30.003"/>
<rect id="box1_8_" x="487.068" y="30.477" fill="#A0C9EC" width="30.003" height="30.003"/>
<rect id="box1_9_" x="517.445" y="30.477" fill="#FFFFFF" width="30.004" height="30.003"/>
<rect id="box1_10_" x="487.067" y="61.037" fill="#FFFFFF" width="30.004" height="30.003"/>
<rect id="box1_11_" x="547.823" y="0.438" fill="#D2EDF4" width="30.004" height="30.003"/>
<rect id="box1_12_" x="517.445" y="61.037" fill="#CFCCE6" width="30.004" height="30.003"/>
<rect id="box1_13_" x="547.823" y="61.037" fill="#3599CC" width="30.004" height="30.003"/>
<rect id="box1_14_" x="487.067" y="91.602" fill="#CFCCE6" width="30.004" height="30.003"/>
<g>
	<path fill="#FFFFFF" d="M711.817,627.794h0.044c-1.348-0.498-2.477-0.988-3.384-1.473c-0.908-0.482-1.611-0.988-2.109-1.516
		c-1.963-2.021-2.944-4.38-2.944-7.075c0-2.725,1.025-5.142,3.076-7.251c4.219-4.277,9.727-6.416,16.523-6.416
		c3.633,0,7.046,0.77,10.239,2.307c3.192,1.539,6.079,3.714,8.657,6.526c0.322,0.41,0.483,0.923,0.483,1.538
		c0,0.762-0.271,1.414-0.813,1.955c-0.542,0.543-1.193,0.813-1.955,0.813c-0.732,0-1.304-0.234-1.714-0.703l-1.362-1.362
		c-3.75-3.75-8.262-5.625-13.535-5.625c-5.303,0-9.565,1.699-12.788,5.098c-0.879,1.025-1.318,2.285-1.318,3.779
		c0.059,0.879,0.322,1.641,0.791,2.285c0.468,0.645,1.157,1.128,2.065,1.45l22.456,7.427h-0.044
		c1.348,0.498,2.476,0.988,3.384,1.473c0.907,0.482,1.597,0.988,2.065,1.516c1.992,1.992,2.988,4.351,2.988,7.075
		c0,2.754-1.04,5.171-3.12,7.251c-4.19,4.277-9.683,6.416-16.479,6.416c-7.354,0-13.652-2.93-18.896-8.789
		c-0.322-0.439-0.483-0.967-0.483-1.582c0-0.762,0.264-1.413,0.791-1.955s1.171-0.813,1.934-0.813c0.703,0,1.289,0.234,1.758,0.703
		l1.362,1.362c3.75,3.75,8.262,5.625,13.535,5.625s9.507-1.685,12.7-5.054c0.907-1.025,1.362-2.285,1.362-3.779
		c-0.146-1.875-1.099-3.135-2.856-3.779L711.817,627.794z"/>
	<path fill="#FFFFFF" d="M799.136,628.673c0,6.797-2.402,12.598-7.207,17.402s-10.605,7.207-17.402,7.207
		s-12.598-2.402-17.402-7.207s-7.207-10.605-7.207-17.402s2.402-12.598,7.207-17.402s10.605-7.207,17.402-7.207
		s12.598,2.402,17.402,7.207S799.136,621.876,799.136,628.673z M774.527,609.513c-5.273,0-9.785,1.875-13.535,5.625
		s-5.625,8.262-5.625,13.535s1.875,9.785,5.625,13.535s8.262,5.625,13.535,5.625s9.785-1.875,13.535-5.625
		c3.721-3.721,5.581-8.232,5.581-13.535s-1.86-9.814-5.581-13.535C784.312,611.388,779.8,609.513,774.527,609.513z"/>
	<path fill="#FFFFFF" d="M834.6,582.97c0.762,0,1.406,0.264,1.934,0.791s0.791,1.172,0.791,1.934s-0.264,1.414-0.791,1.955
		c-0.527,0.543-1.172,0.813-1.934,0.813c-10.342,0-15.513,5.156-15.513,15.469v2.856h11.909c0.762,0,1.406,0.264,1.934,0.791
		s0.791,1.172,0.791,1.934s-0.264,1.414-0.791,1.955c-0.527,0.543-1.172,0.813-1.934,0.813h-11.909v38.276
		c0,0.762-0.264,1.406-0.791,1.934s-1.172,0.791-1.934,0.791s-1.414-0.264-1.955-0.791c-0.543-0.527-0.813-1.172-0.813-1.934
		v-38.276h-4.526c-0.762,0-1.406-0.271-1.934-0.813c-0.527-0.541-0.791-1.193-0.791-1.955s0.264-1.406,0.791-1.934
		s1.172-0.791,1.934-0.791h4.526v-2.856C813.594,589.958,820.596,582.97,834.6,582.97z"/>
	<path fill="#FFFFFF" d="M866.109,647.833c0.762,0,1.413,0.264,1.955,0.791s0.813,1.172,0.813,1.934s-0.271,1.406-0.813,1.934
		s-1.193,0.791-1.955,0.791c-11.543,0-17.314-5.771-17.314-17.314v-26.455h-4.526c-0.762,0-1.414-0.264-1.956-0.791
		s-0.812-1.172-0.812-1.934s0.271-1.406,0.812-1.934s1.194-0.791,1.956-0.791h4.526v-18.413c0-0.762,0.264-1.406,0.791-1.934
		s1.172-0.791,1.934-0.791s1.413,0.264,1.955,0.791s0.813,1.172,0.813,1.934v18.413h8.218c0.762,0,1.413,0.264,1.955,0.791
		s0.813,1.172,0.813,1.934s-0.271,1.406-0.813,1.934s-1.193,0.791-1.955,0.791h-8.218v26.455
		C854.288,643.878,858.228,647.833,866.109,647.833z"/>
	<path fill="#FFFFFF" d="M906.363,604.811c0.527-0.498,1.157-0.747,1.89-0.747c0.762,0,1.392,0.249,1.89,0.747
		c0.352,0.352,0.615,0.806,0.791,1.362l11.909,35.728l12.041-36.255c0.117-0.293,0.293-0.557,0.527-0.791
		c0.527-0.527,1.201-0.791,2.021-0.791c0.762,0,1.406,0.264,1.934,0.791s0.791,1.172,0.791,1.934c0,0.352-0.073,0.732-0.22,1.143
		l-14.546,43.638c-0.117,0.352-0.337,0.688-0.659,1.011c-0.469,0.469-1.099,0.703-1.89,0.703s-1.436-0.249-1.934-0.747
		c-0.264-0.264-0.469-0.586-0.615-0.967l-12.041-36.123l-12.041,36.123c-0.117,0.352-0.308,0.659-0.571,0.923
		c-0.527,0.527-1.187,0.791-1.978,0.791s-1.436-0.249-1.934-0.747c-0.264-0.264-0.469-0.586-0.615-0.967l-14.546-43.638
		c-0.146-0.439-0.22-0.82-0.22-1.143c0-0.762,0.264-1.406,0.791-1.934s1.172-0.791,1.934-0.791s1.421,0.264,1.978,0.791
		c0.205,0.205,0.381,0.483,0.527,0.835l12.085,36.211l11.909-35.728C905.777,605.587,906.041,605.133,906.363,604.811z"/>
	<path fill="#FFFFFF" d="M990.518,644.362c-5.918,5.947-12.29,8.921-19.116,8.921c-6.797,0-12.598-2.402-17.402-7.207
		s-7.207-10.605-7.207-17.402s2.402-12.598,7.207-17.402s10.605-7.207,17.402-7.207s12.598,2.402,17.402,7.207
		s7.207,10.605,7.207,17.402v21.885c0,0.762-0.264,1.406-0.791,1.934s-1.172,0.791-1.934,0.791s-1.414-0.264-1.955-0.791
		c-0.543-0.527-0.813-1.172-0.813-1.934V644.362z M971.402,609.513c-5.273,0-9.785,1.875-13.535,5.625s-5.625,8.262-5.625,13.535
		s1.875,9.785,5.625,13.535s8.262,5.625,13.535,5.625s9.785-1.875,13.535-5.625c3.721-3.721,5.581-8.232,5.581-13.535
		s-1.86-9.814-5.581-13.535C981.187,611.388,976.675,609.513,971.402,609.513z"/>
	<path fill="#FFFFFF" d="M1003.174,606.789c0-0.762,0.264-1.406,0.791-1.934s1.172-0.791,1.934-0.791s1.406,0.264,1.934,0.791
		s0.791,1.172,0.791,1.934v6.196c5.947-5.947,12.334-8.921,19.16-8.921c3.662,0,6.797,0.571,9.404,1.714
		c0.469,0.176,0.894,0.454,1.274,0.835c0.498,0.498,0.747,1.143,0.747,1.934c0,0.762-0.264,1.406-0.791,1.934
		s-1.172,0.791-1.934,0.791c-0.469,0-0.879-0.088-1.23-0.264c-2.051-0.996-4.541-1.494-7.471-1.494
		c-5.273,0-9.785,1.875-13.535,5.625c-3.75,3.721-5.625,8.232-5.625,13.535v21.885c0,0.762-0.264,1.406-0.791,1.934
		s-1.172,0.791-1.934,0.791s-1.406-0.264-1.934-0.791s-0.791-1.172-0.791-1.934V606.789z"/>
	<path fill="#FFFFFF" d="M1083.858,642.692c0.762,0,1.406,0.271,1.934,0.813s0.791,1.193,0.791,1.955s-0.234,1.392-0.703,1.89
		c-4.57,3.955-9.917,5.933-16.04,5.933c-6.797,0-12.598-2.402-17.402-7.207s-7.207-10.605-7.207-17.402s2.402-12.598,7.207-17.402
		s10.605-7.207,17.402-7.207s12.598,2.402,17.402,7.207s7.207,10.605,7.207,17.402c0,0.762-0.264,1.406-0.791,1.934
		s-1.172,0.791-1.934,0.791h-40.957c0.879,4.395,2.725,7.998,5.537,10.811c3.75,3.75,8.262,5.625,13.535,5.625
		c2.402,0,4.629-0.388,6.68-1.164s3.926-1.897,5.625-3.362C1082.642,642.897,1083.213,642.692,1083.858,642.692z M1088.868,625.949
		c-0.82-4.365-2.651-7.969-5.493-10.811c-3.75-3.75-8.262-5.625-13.535-5.625s-9.785,1.875-13.535,5.625
		c-2.812,2.812-4.658,6.416-5.537,10.811H1088.868z"/>
</g>
</svg>
